<svg width="32" height="32" viewBox="0 0 32 32" fill="none" xmlns="http://www.w3.org/2000/svg">
<g clip-path="url(#clip0)">
<path d="M29.3333 16C29.3333 23.352 23.352 29.3333 16 29.3333C8.648 29.3333 2.66667 23.352 2.66667 16C2.66667 8.648 8.648 2.66667 16 2.66667C23.352 2.66667 29.3333 8.648 29.3333 16ZM32 16C32 7.164 24.836 0 16 0C7.164 0 0 7.164 0 16C0 24.836 7.164 32 16 32C24.836 32 32 24.836 32 16ZM16 18.6667L10 12.6667L8 14.7027L16 22.6667L24 14.7027L22 12.6667L16 18.6667Z" fill="#262626"/>
</g>
<defs>
<clipPath id="clip0">
<rect width="32" height="32" fill="white" transform="translate(32) rotate(90)"/>
</clipPath>
</defs>
</svg>
