<svg width="30" height="30" viewBox="0 0 30 30" fill="none" xmlns="http://www.w3.org/2000/svg">
<path d="M15 30C16.7402 30 18.4112 29.7037 19.9653 29.1587C19.5381 24.0209 15.2342 20 10.0001 20C7.0339 20 4.36645 21.2913 2.534 23.3454C5.22595 27.3586 9.80452 30 15 30Z" fill="#1A61FF"/>
<path d="M30 15C30 13.2599 29.7037 11.5889 29.1588 10.0349C24.0347 10.4616 20 14.7509 20 20C20 22.9648 21.2949 25.6311 23.3491 27.4635C27.3602 24.7712 30 20.1939 30 15Z" fill="#1A61FF"/>
<path d="M15 0C13.2599 0 11.589 0.296296 10.035 0.841187C10.4632 5.96528 14.7667 10 20 10C22.9648 10 25.6311 8.70513 27.4635 6.65088C24.7712 2.63978 20.1939 0 15 0Z" fill="#1A61FF"/>
<path d="M6.65452 2.53406C2.64138 5.22602 0 9.80455 0 15C0 16.7401 0.296308 18.411 0.84122 19.965C5.9653 19.5369 10 15.2334 10 10C10 7.02807 8.70666 4.3638 6.65452 2.53406Z" fill="#1A61FF"/>
</svg>
