<svg width="29" height="29" viewBox="0 0 29 29" fill="none" xmlns="http://www.w3.org/2000/svg">
<path d="M19.3334 29C19.3334 23.6511 14.9995 19.3333 9.6667 19.3333C4.33392 19.3333 0 23.6511 0 29H19.3334Z" fill="#0047FF"/>
<path d="M29 9.66669C23.6672 9.66669 19.3333 13.9845 19.3333 19.3334C19.3333 24.6661 23.6672 29 29 29V9.66669Z" fill="#0047FF"/>
<path d="M9.66669 0C9.66669 5.33278 14.0006 9.66667 19.3334 9.66667C24.6661 9.66667 29 5.33278 29 0H9.66669Z" fill="#0047FF"/>
<path d="M0 19.3334C5.33278 19.3334 9.66667 14.9995 9.66667 9.6667C9.66667 4.3178 5.33278 0 0 0V19.3334Z" fill="#0047FF"/>
</svg>
